<svg width="20" height="20" viewBox="0 0 20 20" fill="none" xmlns="http://www.w3.org/2000/svg">
    <path d="M19.5578 10.7071L19.5482 10.7141L19.4969 10.6359C19.4873 10.6258 19.4791 10.6145 19.4726 10.6026L15.9688 5.41473C15.9789 5.43207 15.982 5.45222 15.9919 5.46956C15.9495 5.39364 15.9103 5.31609 15.8604 5.24393C15.5438 4.78329 15.0938 4.42434 14.5675 4.21254C14.0412 4.00073 13.4622 3.94567 12.9038 4.05438C12.3455 4.1631 11.8327 4.43044 11.4304 4.82289C11.028 5.21534 10.7545 5.71487 10.6445 6.25868C10.5342 6.80249 10.5923 7.36575 10.8114 7.87722C10.899 8.08177 11.0271 8.26358 11.16 8.44071C11.1328 8.4044 11.0959 8.37605 11.0707 8.33832L8.87562 5.33366C8.61897 4.92621 8.25927 4.58976 7.83071 4.35616C7.40191 4.1228 6.91894 4.00026 6.42802 4.00026C5.9371 4.00026 5.45413 4.1228 5.02557 4.3564C4.59701 4.58999 4.23731 4.92645 3.98066 5.3339L0.492718 10.6122C0.502108 10.5989 0.515832 10.589 0.525462 10.5759C0.296978 10.8929 0.13374 11.2518 0.055251 11.6349C-0.055741 12.1783 0.00131996 12.7413 0.21897 13.253C0.436861 13.7647 0.805711 14.2022 1.27905 14.5098C1.75239 14.8174 2.3088 14.9819 2.87796 14.9819C3.64118 14.9819 4.37335 14.6869 4.9129 14.1616C5.45269 13.6366 5.75581 12.924 5.75581 12.1815C5.75581 11.6602 5.60124 11.1527 5.32027 10.7106C5.32556 10.7188 5.33375 10.7251 5.33881 10.7336L7.62173 13.8404C7.88825 14.1949 8.23688 14.4833 8.63967 14.6822C9.04223 14.8812 9.4874 14.9847 9.93883 14.9847C10.3903 14.9847 10.8354 14.8812 11.238 14.6822C11.6406 14.4835 11.9894 14.1949 12.2559 13.8404L12.2779 13.8048L12.4437 13.5674L13.5151 11.9409L14.6946 13.7029L14.736 13.7671L14.7555 13.7931C15.1836 14.3952 15.8371 14.8102 16.5757 14.9491C17.3146 15.088 18.0798 14.94 18.7077 14.5365C19.3356 14.133 19.7762 13.5063 19.9351 12.7907C20.094 12.0749 19.9585 11.3273 19.5578 10.7076V10.7071ZM4.20601 13.4732C3.85378 13.816 3.3761 14.0086 2.87796 14.0086C2.50646 14.0086 2.14339 13.9015 1.83473 13.7005C1.52583 13.4997 1.28531 13.2143 1.14302 12.8805C1.00097 12.5466 0.963652 12.1792 1.03612 11.8247C1.10859 11.4702 1.28748 11.1445 1.55015 10.8891C1.81282 10.6335 2.14749 10.4594 2.51176 10.3889C2.87604 10.3184 3.25379 10.3545 3.59688 10.4929C3.93997 10.6312 4.23322 10.8655 4.43955 11.1661C4.64589 11.4667 4.75592 11.8198 4.75592 12.1813C4.75592 12.6658 4.55801 13.1307 4.20601 13.4735V13.4732ZM14.8032 8.09278C14.451 8.43556 13.9733 8.62815 13.4752 8.62815H13.4725C13.1008 8.62909 12.7375 8.52272 12.4278 8.32239C12.1185 8.12207 11.877 7.83716 11.7342 7.50328C11.5914 7.1694 11.5534 6.80202 11.6254 6.44706C11.6974 6.09233 11.8758 5.76618 12.1382 5.51009C12.4006 5.254 12.7353 5.07968 13.0996 5.00869C13.4641 4.93793 13.8419 4.97378 14.1852 5.11201C14.5288 5.25025 14.8222 5.48455 15.0288 5.78516C15.2354 6.08576 15.3457 6.43932 15.3457 6.80085H15.3529C15.3529 7.28562 15.155 7.75023 14.803 8.09301L14.8032 8.09278Z"
          fill="#A7AAAD"/>
</svg>
